# xmcd
#
# Track frame offsets:
#	150
#	18056
#	37178
#	49440
#	61776
#	72008
#	90826
#	105084
#	119859
#	131040
#	142804
#	154191
#	166149
#
# Disc length: 2380 seconds
# Revision: 0
# Processed by: cddbd v1.5.2PL0 Copyright (c) Steve Scherf et al.
# Submitted via: dBpowerAMP V12.0
#
DISCID=a3094a0d
DTITLE=CJ Lewandowski - Ozark Mandolin
DYEAR=2019
DGENRE=Bluegrass
TTITLE0=Dub
TTITLE1=Spring Valley Blues
TTITLE2=Little Dab of Ink
TTITLE3=Big Ol' Buckeye
TTITLE4=Trouble in B
TTITLE5=Bashers Blues
TTITLE6=Lucys Waltz
TTITLE7=Ozark Stomp
TTITLE8=Sambo at Sinkin' Creek
TTITLE9=Tivis' Hickory Stripes
TTITLE10=Flat Rock Hop
TTITLE11=Ricochet
TTITLE12=Mrs. Marshall on Flat Branch
EXTD=
EXTT0=
EXTT1=
EXTT2=
EXTT3=
EXTT4=
EXTT5=
EXTT6=
EXTT7=
EXTT8=
EXTT9=
EXTT10=
EXTT11=
EXTT12=
PLAYORDER=
